<?xml version="1.0" encoding="utf-8"?>
<!-- Generator: Adobe Illustrator 16.0.0, SVG Export Plug-In . SVG Version: 6.00 Build 0)  -->
<!DOCTYPE svg PUBLIC "-//W3C//DTD SVG 1.1//EN" "http://www.w3.org/Graphics/SVG/1.1/DTD/svg11.dtd">
<svg version="1.1" id="Layer_1" xmlns="http://www.w3.org/2000/svg" xmlns:xlink="http://www.w3.org/1999/xlink" x="0px" y="0px"
	 width="127.917px" height="58.837px" viewBox="0 0 127.917 58.837" enable-background="new 0 0 127.917 58.837"
	 xml:space="preserve">
<g>
	<g>
		<path d="M20.238,58.622C8.543,58.622,0.664,51.406,0,41.618h11.031c0.829,4.231,4.396,6.636,9.207,6.636
			c4.728,0,9.538-2.903,9.538-9.456c0-5.723-3.733-9.787-9.124-9.787c-3.566,0-6.884,1.824-8.958,4.976l-9.87-2.654l3.4-31.269
			h31.933v10.202H13.686l-1.41,12.026c2.737-1.741,6.055-2.737,9.124-2.737c10.949,0,19.325,8.211,19.325,19.575
			C40.725,50.245,31.933,58.622,20.238,58.622z"/>
		<path d="M84.847,29.343c0,21.648-11.03,29.361-21.316,29.361c-10.368,0-21.399-7.713-21.399-29.361S53.163-0.019,63.531-0.019
			C73.817-0.019,84.847,7.695,84.847,29.343z M73.982,29.343c0-5.806-1.079-19.326-10.451-19.326
			c-9.455,0-10.534,13.52-10.534,19.326c0,5.723,1.079,19.242,10.534,19.242C72.904,48.585,73.982,35.066,73.982,29.343z"/>
	</g>
	<g>
		<path d="M104.277,10.015c0,5.428-4.241,9.838-9.895,9.838c-5.598,0-9.895-4.41-9.895-9.838c0-5.484,4.297-9.895,9.895-9.895
			C100.037,0.12,104.277,4.531,104.277,10.015z M98.679,10.015c0-2.487-1.922-4.523-4.297-4.523c-2.318,0-4.24,2.036-4.24,4.523
			c0,2.488,1.922,4.524,4.24,4.524C96.757,14.539,98.679,12.502,98.679,10.015z M113.55,0.12h6.05L98.058,39.36h-6.05L113.55,0.12z
			 M107.331,29.465c0-5.428,4.24-9.895,9.895-9.895c5.598,0,9.895,4.466,9.895,9.895c0,5.485-4.297,9.895-9.895,9.895
			C111.571,39.36,107.331,34.95,107.331,29.465z M112.928,29.465c0,2.488,1.922,4.523,4.297,4.523c2.319,0,4.297-2.035,4.297-4.523
			c0-2.488-1.979-4.523-4.297-4.523C114.85,24.941,112.928,26.977,112.928,29.465z"/>
	</g>
	<g>
		<path d="M100.078,50.279c0,4.775-3.381,8.558-8.015,8.558c-4.657,0-8.039-3.783-8.039-8.558c0-4.753,3.381-8.535,8.039-8.535
			C96.697,41.744,100.078,45.526,100.078,50.279z M96.934,50.279c0-3.051-2.176-5.58-4.871-5.58c-2.719,0-4.894,2.529-4.894,5.58
			c0,3.072,2.175,5.603,4.894,5.603C94.758,55.882,96.934,53.351,96.934,50.279z"/>
		<path d="M105.494,48.954h7.4v2.908h-7.4v6.691h-3.121V42.145h11.728v2.908h-8.606V48.954z"/>
		<path d="M119.35,48.954h7.401v2.908h-7.401v6.691h-3.12V42.145h11.727v2.908h-8.607V48.954z"/>
	</g>
</g>
</svg>
