<?xml version="1.0" encoding="utf-8"?>
<!-- Generator: Adobe Illustrator 16.0.0, SVG Export Plug-In . SVG Version: 6.00 Build 0)  -->
<!DOCTYPE svg PUBLIC "-//W3C//DTD SVG 1.1//EN" "http://www.w3.org/Graphics/SVG/1.1/DTD/svg11.dtd">
<svg version="1.1" id="Layer_1" xmlns="http://www.w3.org/2000/svg" xmlns:xlink="http://www.w3.org/1999/xlink" x="0px" y="0px"
	 width="255.044px" height="117.311px" viewBox="0 0 255.044 117.311" enable-background="new 0 0 255.044 117.311"
	 xml:space="preserve">
<g>
	<g>
		<path fill="#FFFFFF" d="M40.379,116.978c-23.333,0-39.055-14.396-40.379-33.924h22.009c1.654,8.441,8.77,13.24,18.37,13.24
			c9.432,0,19.03-5.792,19.03-18.866c0-11.418-7.448-19.526-18.203-19.526c-7.115,0-13.734,3.639-17.873,9.928L3.642,62.534
			l6.784-62.387h63.711v20.355H27.305l-2.812,23.995c5.46-3.474,12.08-5.461,18.203-5.461c21.845,0,38.557,16.383,38.557,39.056
			C81.252,100.265,63.712,116.978,40.379,116.978z"/>
		<path fill="#FFFFFF" d="M169.284,58.563c0,43.191-22.007,58.581-42.529,58.581c-20.686,0-42.694-15.39-42.694-58.581
			c0-43.191,22.008-58.582,42.694-58.582C147.277-0.019,169.284,15.372,169.284,58.563z M147.607,58.563
			c0-11.583-2.152-38.558-20.852-38.558c-18.864,0-21.018,26.975-21.018,38.558c0,11.419,2.153,38.392,21.018,38.392
			C145.455,96.955,147.607,69.982,147.607,58.563z"/>
	</g>
	<g>
		<path fill="#FFFFFF" d="M208.05,20c0,10.83-8.461,19.629-19.742,19.629c-11.168,0-19.741-8.799-19.741-19.629
			c0-10.941,8.573-19.742,19.741-19.742C199.589,0.257,208.05,9.058,208.05,20z M196.881,20c0-4.963-3.834-9.024-8.573-9.024
			c-4.625,0-8.46,4.062-8.46,9.024c0,4.963,3.834,9.026,8.46,9.026C193.047,29.025,196.881,24.963,196.881,20z M226.551,0.257
			h12.071l-42.98,78.291h-12.071L226.551,0.257z M214.142,58.806c0-10.83,8.46-19.741,19.741-19.741
			c11.168,0,19.741,8.911,19.741,19.741c0,10.943-8.573,19.742-19.741,19.742C222.602,78.548,214.142,69.749,214.142,58.806z
			 M225.31,58.806c0,4.964,3.835,9.025,8.574,9.025c4.626,0,8.574-4.061,8.574-9.025c0-4.963-3.948-9.025-8.574-9.025
			C229.145,49.781,225.31,53.842,225.31,58.806z"/>
	</g>
	<g>
		<path fill="#FFFFFF" d="M199.672,100.333c0,9.528-6.746,17.075-15.992,17.075c-9.292,0-16.038-7.547-16.038-17.075
			c0-9.483,6.747-17.029,16.038-17.029C192.926,83.304,199.672,90.85,199.672,100.333z M193.399,100.333
			c0-6.088-4.342-11.133-9.719-11.133c-5.424,0-9.764,5.045-9.764,11.133c0,6.13,4.34,11.179,9.764,11.179
			C189.058,111.512,193.399,106.463,193.399,100.333z"/>
		<path fill="#FFFFFF" d="M210.478,97.689h14.765v5.802h-14.765v13.351h-6.227V84.104h23.398v5.803h-17.171V97.689z"/>
		<path fill="#FFFFFF" d="M238.122,97.689h14.766v5.802h-14.766v13.351h-6.224V84.104h23.396v5.803h-17.172V97.689z"/>
	</g>
</g>
</svg>
