<?xml version="1.0" encoding="utf-8"?>
<!-- Generator: Adobe Illustrator 16.0.0, SVG Export Plug-In . SVG Version: 6.00 Build 0)  -->
<!DOCTYPE svg PUBLIC "-//W3C//DTD SVG 1.1//EN" "http://www.w3.org/Graphics/SVG/1.1/DTD/svg11.dtd">
<svg version="1.1" id="Layer_1" xmlns="http://www.w3.org/2000/svg" xmlns:xlink="http://www.w3.org/1999/xlink" x="0px" y="0px"
	 width="159.714px" height="71.024px" viewBox="0 0 159.714 71.024" enable-background="new 0 0 159.714 71.024"
	 xml:space="preserve">
<g>
	<g>
		<path fill="#FFFFFF" d="M22.939,71.024c-12.307,0-21.42-6.482-22.923-16.91h12.589c1.691,4.134,6.67,5.636,10.334,5.636
			c4.979,0,8.737-1.502,8.737-4.321c0-2.725-1.691-3.853-10.146-5.167c-8.643-1.315-20.199-3.664-20.199-14.469
			c0-7.609,6.67-15.501,20.668-15.501c11.086,0,19.354,6.013,20.951,15.125H30.08c-0.751-2.254-3.476-4.039-8.08-4.039
			c-5.731,0-8.08,2.066-8.08,3.852c0,2.537,3.57,3.382,9.583,4.321c12.025,1.974,20.668,4.604,20.668,15.126
			C44.172,64.26,35.341,71.024,22.939,71.024z"/>
		<path fill="#FFFFFF" d="M80.246,65.387c-3.194,3.383-8.08,5.449-14.844,5.449c-10.24,0-19.635-5.166-19.635-15.689
			c0-10.897,9.113-13.717,19.823-14.656c8.08-0.751,13.811-1.69,13.811-5.637c0-2.536-3.288-4.604-8.831-4.604
			c-4.416,0-9.489,1.974-10.616,6.106H47.552c1.222-9.206,10.053-16.064,22.736-16.064c19.635,0,21.138,12.683,21.138,16.534v25.179
			c0,2.348,0.751,6.012,1.409,7.891H81.467C80.904,68.676,80.528,67.172,80.246,65.387z M79.87,46.599
			c-2.63,1.69-6.67,2.536-11.744,3.1c-6.106,0.658-9.864,1.974-9.864,5.543c0,2.724,3.194,4.603,8.173,4.603
			c7.422,0,13.435-2.535,13.435-8.737V46.599z"/>
		<path fill="#FFFFFF" d="M108.804,69.897H96.403V0h12.401V69.897z"/>
		<path fill="#FFFFFF" d="M122.989,50.544c1.597,5.919,6.294,9.583,12.119,9.583c4.134,0,8.173-1.785,10.24-5.637h13.247
			c-2.819,9.864-11.368,16.534-23.394,16.534c-13.622,0-24.802-11.273-24.802-25.271c0-13.998,11.18-25.46,24.802-25.46
			c14.28,0,26.118,11.086,24.333,30.251H122.989z M147.228,40.397c-1.503-5.637-6.2-9.207-12.119-9.207
			c-5.637,0-10.146,3.57-11.932,9.207H147.228z"/>
	</g>
	<g>
		<path fill="#FFFFFF" d="M0.832,9.071h0.182c0.715,2.21,1.404,2.873,2.639,2.873s2.002-0.819,2.002-1.872
			c0-0.884-0.533-1.521-1.872-2.184C2.587,7.291,1.82,6.783,1.82,5.6c0-1.508,1.339-2.925,3.302-2.925
			c0.897,0,1.56,0.286,2.067,0.546l0.767-0.624h0.208L7.437,5.496H7.229C6.526,3.39,5.916,2.909,4.875,2.909
			c-1.014,0-1.794,0.767-1.794,1.82c0,0.962,0.819,1.391,1.846,1.937c1.144,0.598,1.937,1.222,1.937,2.392
			c0,1.573-1.092,3.12-3.406,3.12c-0.91,0-1.937-0.299-2.522-0.637L0.208,12.23H0L0.832,9.071z"/>
		<path fill="#FFFFFF" d="M7.41,11.789c1.196-0.065,1.469-0.221,1.599-0.702l1.95-7.319c0.117-0.416,0-0.65-1.209-0.702l0.039-0.169
			h7.423l-0.689,2.769h-0.208c-0.351-1.82-0.494-2.496-2.041-2.496h-1.638l-1.04,3.875h0.819c1.014,0,1.222-0.234,2.106-1.56h0.195
			l-0.91,3.51h-0.195c-0.208-1.43-0.247-1.69-1.261-1.69h-0.819l-1.17,4.381h1.911c1.82,0,2.431-0.832,3.627-2.704h0.221
			l-0.858,2.977H7.371L7.41,11.789z"/>
		<path fill="#FFFFFF" d="M16.666,11.789c1.196-0.065,1.469-0.221,1.599-0.702l1.95-7.319c0.117-0.416,0-0.65-1.209-0.702
			l0.039-0.169h3.458c2.561,0,3.367,1.014,3.367,2.145c0,1.404-1.235,2.938-4.251,2.938h-1.014l-0.832,3.094
			c-0.117,0.468,0.078,0.65,1.17,0.715l-0.039,0.169h-4.277L16.666,11.789z M21.515,7.719c2.249,0,2.795-1.768,2.795-3.055
			c0-1.04-0.494-1.508-1.677-1.508h-0.741L20.67,7.719H21.515z"/>
		<path fill="#FFFFFF" d="M27.092,11.789c1.287-0.065,1.599-0.221,1.729-0.702l2.119-7.93h-0.481c-1.183,0-1.716,0.546-3.263,2.717
			h-0.247l0.897-2.977h7.878l-0.741,2.977h-0.208c-0.481-2.223-0.585-2.717-1.807-2.717h-0.52l-2.119,7.917
			c-0.13,0.533,0.117,0.65,1.391,0.715l-0.039,0.169h-4.628L27.092,11.789z"/>
		<path fill="#FFFFFF" d="M34.671,11.789c1.196-0.065,1.469-0.221,1.599-0.702l1.95-7.319c0.117-0.416,0-0.65-1.209-0.702
			l0.039-0.169h7.423l-0.689,2.769h-0.208c-0.351-1.82-0.494-2.496-2.041-2.496h-1.638l-1.04,3.875h0.819
			c1.014,0,1.222-0.234,2.106-1.56h0.195l-0.91,3.51h-0.195c-0.208-1.43-0.247-1.69-1.261-1.69h-0.819l-1.17,4.381h1.911
			c1.82,0,2.431-0.832,3.627-2.704h0.221l-0.858,2.977h-7.892L34.671,11.789z"/>
		<path fill="#FFFFFF" d="M43.862,11.789c1.17-0.065,1.677-0.52,2.002-1.768l1.586-6.071c0.143-0.494-0.052-0.819-1.248-0.884
			l0.039-0.169h3.185l0.975,7.072h0.052l4.524-7.072h3.12l-0.039,0.169c-1.209,0.052-1.495,0.26-1.612,0.689l-1.95,7.319
			c-0.13,0.468,0.026,0.65,1.209,0.715l-0.039,0.169h-4.199l0.039-0.169c1.131-0.065,1.365-0.234,1.495-0.728l1.989-7.437h-0.078
			L49.53,12.01h-0.312l-1.222-8.386h-0.091l-1.677,6.396c-0.325,1.222-0.13,1.612,1.118,1.768l-0.039,0.169h-3.484L43.862,11.789z"
			/>
		<path fill="#FFFFFF" d="M56.927,11.789c1.196-0.065,1.469-0.221,1.599-0.702l1.95-7.319c0.117-0.416,0-0.65-1.209-0.702
			l0.039-0.169h3.562c2.431,0,3.302,0.871,3.302,1.872c0,1.157-1.014,2.197-3.211,2.431l-0.013,0.039
			c1.911,0.208,2.561,1.001,2.561,2.041c0,1.326-1.365,2.678-4.368,2.678h-4.251L56.927,11.789z M61.269,11.697
			c2.015,0,2.613-1.404,2.613-2.821c0-0.988-0.585-1.534-2.093-1.534h-0.754l-1.17,4.355H61.269z M62.049,7.069
			c2.067,0,2.587-1.339,2.587-2.509c0-0.962-0.507-1.404-1.82-1.404h-0.663l-1.04,3.913H62.049z"/>
		<path fill="#FFFFFF" d="M66.091,11.789c1.196-0.065,1.469-0.221,1.599-0.702l1.95-7.319c0.117-0.416,0-0.65-1.209-0.702
			l0.039-0.169h7.423l-0.689,2.769h-0.208c-0.351-1.82-0.494-2.496-2.041-2.496h-1.638l-1.04,3.875h0.819
			c1.014,0,1.222-0.234,2.106-1.56h0.195l-0.91,3.51h-0.195c-0.208-1.43-0.247-1.69-1.261-1.69h-0.819l-1.17,4.381h1.911
			c1.82,0,2.431-0.832,3.627-2.704h0.221l-0.858,2.977h-7.892L66.091,11.789z"/>
		<path fill="#FFFFFF" d="M78.455,11.073c-0.117,0.468,0.078,0.65,1.17,0.715l-0.039,0.169h-4.277l0.039-0.169
			c1.196-0.065,1.469-0.221,1.599-0.702l1.95-7.319c0.117-0.416,0-0.65-1.209-0.702l0.039-0.169h3.523
			c2.444,0,3.406,0.767,3.406,1.937c0,1.248-1.001,2.236-3.354,2.548L81.289,7.42c1.794,0.156,2.223,0.78,2.106,2.119l-0.065,0.962
			c-0.078,1.066,0.091,1.313,1.17,1.352l-0.039,0.169c-0.195,0.013-0.572,0.026-0.793,0.026c-1.95,0-2.054-0.468-1.898-1.69
			l0.13-1.079c0.156-1.222-0.117-1.729-1.573-1.729h-0.923L78.455,11.073z M80.301,7.277c2.041,0,2.795-1.417,2.795-2.665
			c0-0.962-0.468-1.456-1.742-1.456h-0.78l-1.092,4.121H80.301z"/>
		<path fill="#FFFFFF" d="M114.71,11.789c1.196-0.065,1.469-0.221,1.599-0.702l1.95-7.319c0.117-0.416,0-0.65-1.209-0.702
			l0.039-0.169h4.212l-0.039,0.169c-1.183,0.065-1.378,0.286-1.495,0.715l-0.884,3.341h4.056l0.897-3.354
			c0.104-0.403-0.013-0.637-1.17-0.702l0.039-0.169h4.277l-0.039,0.169c-1.196,0.052-1.482,0.26-1.599,0.689l-1.963,7.319
			c-0.13,0.468,0.026,0.65,1.222,0.715l-0.039,0.169h-4.212l0.039-0.169c1.131-0.065,1.352-0.234,1.482-0.728l0.988-3.666h-4.056
			l-0.988,3.679c-0.117,0.468,0.078,0.65,1.17,0.715l-0.039,0.169h-4.277L114.71,11.789z"/>
		<path fill="#FFFFFF" d="M126.943,8.435c0-2.756,2.236-5.759,5.46-5.759c2.08,0,3.64,1.469,3.64,3.744
			c0,2.756-2.236,5.759-5.46,5.759C128.516,12.179,126.943,10.709,126.943,8.435z M134.496,5.652c0-1.651-0.637-2.73-2.015-2.73
			c-2.34,0-3.978,3.536-3.978,6.279c0,1.651,0.624,2.73,2.015,2.73C132.845,11.932,134.496,8.396,134.496,5.652z"/>
		<path fill="#FFFFFF" d="M135.978,11.789c1.17-0.065,1.677-0.52,2.002-1.768l1.586-6.071c0.143-0.494-0.052-0.819-1.248-0.884
			l0.039-0.169h3.186l0.975,7.072h0.052l4.524-7.072h3.12l-0.039,0.169c-1.209,0.052-1.495,0.26-1.612,0.689l-1.95,7.319
			c-0.13,0.468,0.026,0.65,1.209,0.715l-0.039,0.169h-4.199l0.039-0.169c1.131-0.065,1.365-0.234,1.495-0.728l1.989-7.437h-0.078
			l-5.382,8.386h-0.312l-1.222-8.386h-0.091l-1.677,6.396c-0.325,1.222-0.13,1.612,1.118,1.768l-0.039,0.169h-3.484L135.978,11.789z
			"/>
		<path fill="#FFFFFF" d="M149.042,11.789c1.196-0.065,1.469-0.221,1.599-0.702l1.95-7.319c0.117-0.416,0-0.65-1.209-0.702
			l0.039-0.169h7.423l-0.689,2.769h-0.208c-0.351-1.82-0.494-2.496-2.041-2.496h-1.638l-1.04,3.875h0.819
			c1.014,0,1.222-0.234,2.106-1.56h0.195l-0.91,3.51h-0.195c-0.208-1.43-0.247-1.69-1.261-1.69h-0.819l-1.17,4.381h1.911
			c1.82,0,2.431-0.832,3.627-2.704h0.221l-0.858,2.977h-7.892L149.042,11.789z"/>
	</g>
</g>
</svg>
